<mxfile host="app.diagrams.net" modified="2024-02-19T07:28:58.036Z" agent="Mozilla/5.0 (Windows NT 10.0; Win64; x64) AppleWebKit/537.36 (KHTML, like Gecko) Chrome/121.0.0.0 Safari/537.36" version="23.1.5" etag="xZ3knQ4PnrBPJg2xdUiX" type="github">
  <diagram name="Page-1" id="8x1ObHe7FSzqYkBF3_x6">
    <mxGraphModel>
      <root>
        <mxCell id="0" />
        <mxCell id="1" parent="0" />
      </root>
    </mxGraphModel>
  </diagram>
</mxfile>
